<svg width="24" height="22" viewBox="0 0 24 22" fill="none" xmlns="http://www.w3.org/2000/svg">
<g clip-path="url(#clip0)">
<path d="M7.5 4C7.89556 4 8.28224 3.8827 8.61114 3.66294C8.94004 3.44318 9.19638 3.13082 9.34776 2.76537C9.49913 2.39992 9.53874 1.99778 9.46157 1.60982C9.3844 1.22186 9.19392 0.865492 8.91421 0.585787C8.63451 0.306082 8.27814 0.115601 7.89018 0.0384303C7.50222 -0.0387401 7.10009 0.000866562 6.73463 0.152242C6.36918 0.303617 6.05682 0.559962 5.83706 0.88886C5.6173 1.21776 5.5 1.60444 5.5 2C5.5 2.53043 5.71071 3.03914 6.08579 3.41421C6.46086 3.78929 6.96957 4 7.5 4ZM3.8 7.4L1 21.5H3.1L4.9 13.5L7 15.5V21.5H9V14L6.9 12L7.5 9C8.18604 9.78412 9.03157 10.4128 9.98005 10.8439C10.9285 11.275 11.9581 11.4987 13 11.5V9.5C12.1356 9.51301 11.283 9.29802 10.5281 8.87669C9.77324 8.45536 9.1427 7.84256 8.7 7.1L7.7 5.5C7.52288 5.20444 7.27445 4.95803 6.97746 4.78333C6.68046 4.60862 6.34439 4.51121 6 4.5C5.7 4.5 5.5 4.6 5.2 4.6L0 6.8V11.5H2V8.1L3.8 7.4" fill="#4D4D4D"/>
<path d="M22.57 13.3098C22.537 13.119 22.4432 12.9439 22.3027 12.8105C22.1621 12.6772 21.9824 12.5928 21.79 12.5698L21.63 11.2598L21 11.8998L20.58 10.8198L18.86 14.9998L13.46 15.1998C12.987 15.1631 12.5381 14.9766 12.1784 14.6673C11.8188 14.3579 11.5671 13.942 11.46 13.4798L10.52 13.8298C10.6321 14.3314 10.8769 14.7937 11.2287 15.1684C11.5805 15.5431 12.0265 15.8164 12.52 15.9598C12.3169 16.4038 12.2541 16.8992 12.3398 17.3798C12.4256 17.8604 12.6559 18.3035 13 18.6498C12.68 18.8598 12.38 19.0498 12.2 19.1498L11.93 19.3098L12.12 21.4998L13.12 21.4098L12.98 19.8498C13.8027 19.3753 14.5536 18.7861 15.21 18.0998H15.28L19.63 18.6998L19.84 21.5998L20.84 21.5198L20.64 18.8298C21.34 18.6398 21.74 15.2498 21.74 15.2498C22.1916 15.2993 22.6472 15.2051 23.0422 14.9807C23.4372 14.7563 23.7513 14.4131 23.94 13.9998L22.57 13.3098Z" fill="#4D4D4D"/>
</g>
<defs>
<clipPath id="clip0">
<rect width="23.87" height="21.54" fill="white"/>
</clipPath>
</defs>
</svg>
